<mxfile host="app.diagrams.net" modified="2023-12-22T14:54:57.165Z" agent="Mozilla/5.0 (Windows NT 10.0; Win64; x64) AppleWebKit/537.36 (KHTML, like Gecko) Chrome/120.0.0.0 Safari/537.36" version="22.1.11" etag="RI0txMmuXv7UDGBN9Jmp" type="github">
  <diagram name="Page-1" id="L1J_INbrGxXjzyMVIY-S">
    <mxGraphModel>
      <root>
        <mxCell id="0" />
        <mxCell id="1" parent="0" />
      </root>
    </mxGraphModel>
  </diagram>
</mxfile>
